<?xml version="1.0" encoding="utf-8"?>
<!-- Generator: Adobe Illustrator 25.2.3, SVG Export Plug-In . SVG Version: 6.00 Build 0)  -->
<svg version="1.1" id="Capa_1" xmlns="http://www.w3.org/2000/svg" xmlns:xlink="http://www.w3.org/1999/xlink" x="0px" y="0px"
	 viewBox="0 0 14 14" style="enable-background:new 0 0 14 14;" xml:space="preserve">
<style type="text/css">
	.st0{fill:none;}
	.st1{fill:#F0EFEB;}
</style>
<g id="bounding_box">
	<rect x="-5" y="-5" class="st0" width="24" height="24"/>
</g>
<g id="design">
	<g>
		<path class="st1" d="M7,8.8c-0.3,0-0.6-0.2-0.6-0.6c0-0.8,0.4-1.5,1.2-2c0.4-0.3,0.7-0.8,0.6-1.5C8.1,4.3,7.8,3.9,7.4,3.9
			C7,3.8,6.6,3.9,6.3,4.1C6,4.3,5.8,4.7,5.8,5.1c0,0.3-0.2,0.6-0.6,0.6c-0.4,0-0.5-0.3-0.5-0.6c0-0.8,0.4-1.4,0.9-1.9
			c0.6-0.4,1.3-0.6,2-0.4C8.4,3,9,3.6,9.2,4.4c0.3,1-0.1,2-1,2.6C7.8,7.3,7.6,7.7,7.6,8.1C7.6,8.5,7.3,8.8,7,8.8z"/>
		<path class="st1" d="M7,11.2c-0.1,0-0.2,0-0.3-0.1c-0.1-0.1-0.1-0.1-0.2-0.1c-0.1-0.1-0.2-0.3-0.2-0.5c0-0.1,0-0.1,0-0.1
			s0-0.1,0.1-0.1c0-0.1,0.1-0.1,0.1-0.1L6.5,10c0.1-0.1,0.4-0.2,0.6-0.2c0.1,0,0.1,0,0.1,0.1c0.1,0,0.1,0,0.1,0.1
			c0.1,0,0.1,0.1,0.1,0.1l0.1,0.1c0,0.1,0.1,0.1,0.1,0.1c0,0.1,0.1,0.1,0.1,0.1s0,0.1,0,0.1c0,0.2-0.1,0.4-0.2,0.5
			C7.4,11.1,7.2,11.2,7,11.2z"/>
		<path class="st1" d="M7,14c-3.9,0-7-3.2-7-7s3.2-7,7-7s7,3.2,7,7S10.9,14,7,14z M7,1.1c-3.3,0-6,2.7-6,6s2.7,6,6,6s6-2.7,6-6
			S10.3,1.1,7,1.1z"/>
	</g>
</g>
</svg>
