<?xml version="1.0" encoding="utf-8"?>
<!-- Generator: Adobe Illustrator 25.2.3, SVG Export Plug-In . SVG Version: 6.00 Build 0)  -->
<svg version="1.1" id="Capa_1" xmlns="http://www.w3.org/2000/svg" xmlns:xlink="http://www.w3.org/1999/xlink" x="0px" y="0px"
	 viewBox="0 0 139.82 138.96" style="enable-background:new 0 0 139.82 138.96;" xml:space="preserve">
<style type="text/css">
	.st0{fill:#A4A58D;}
	.st1{fill:#4E3A2F;}
	.st2{fill:none;stroke:#4E3A2F;stroke-width:2;stroke-linecap:round;}
</style>
<g>
	<path class="st0" d="M86.97,108.17H52.84c-10.4,0-18.84-8.9-18.84-19.88v-36c0-10.98,8.44-19.88,18.84-19.88h34.13
		c10.4,0,18.84,8.9,18.84,19.88v36C105.81,99.27,97.38,108.17,86.97,108.17z"/>
	<path class="st1" d="M54.34,76.05c1.72,0,3.11-2.48,3.11-5.54s-1.39-5.54-3.11-5.54s-3.11,2.48-3.11,5.54S52.62,76.05,54.34,76.05z
		"/>
	<path class="st1" d="M85.49,76.05c1.72,0,3.11-2.48,3.11-5.54s-1.39-5.54-3.11-5.54s-3.11,2.48-3.11,5.54S83.77,76.05,85.49,76.05z
		"/>
	<path class="st2" d="M62.73,71.47c2.17,1.67,7.9,4,13.5,0"/>
</g>
</svg>
