<?xml version="1.0" encoding="utf-8"?>
<!-- Generator: Adobe Illustrator 25.2.3, SVG Export Plug-In . SVG Version: 6.00 Build 0)  -->
<svg version="1.1" id="Capa_1" xmlns="http://www.w3.org/2000/svg" xmlns:xlink="http://www.w3.org/1999/xlink" x="0px" y="0px"
	 viewBox="0 0 139.82 138.96" style="enable-background:new 0 0 139.82 138.96;" xml:space="preserve">
<style type="text/css">
	.st0{fill:#A4A58D;}
	.st1{fill:#4E3A2F;}
	.st2{fill:none;stroke:#4E3A2F;stroke-width:2;stroke-linecap:round;}
</style>
<g>
	<path class="st0" d="M86.76,108.17h-33.7c-10.52,0-19.06-9-19.06-20.1V52.52c0-11.1,8.53-20.1,19.06-20.1h33.7
		c10.52,0,19.06,9,19.06,20.1v35.54C105.81,99.17,97.29,108.17,86.76,108.17z"/>
	<path class="st1" d="M84.4,72.57c3.13,0,5.25,3.35,4.07,6.41c-2.79,7.22-10.15,12.37-18.79,12.37c-8.65,0-16.01-5.16-18.79-12.37
		c-1.18-3.06,0.94-6.41,4.07-6.41H84.4z"/>
	<path class="st1" d="M94.26,60.62c0.03-0.06,0.04-0.13,0.06-0.2c0.69-4.08-6.69-5.12-9.06-4.33c-1.22,0.4-2.44,1.11-3.41,1.98
		c-0.38,0.34-2.78,3.52-1.05,3.56c0.26,0,0.49-0.15,0.7-0.31c1.58-1.18,2.42-2.93,4.42-3.43c2.19-0.55,4.59,0.2,6.12,1.95
		C92.52,60.39,93.73,61.96,94.26,60.62z"/>
	<path class="st1" d="M45.56,60.62c-0.03-0.06-0.04-0.13-0.06-0.2c-0.69-4.08,6.69-5.12,9.06-4.33c1.22,0.4,2.44,1.11,3.41,1.98
		c0.38,0.34,2.78,3.52,1.05,3.56c-0.26,0-0.49-0.15-0.7-0.31c-1.58-1.18-2.42-2.93-4.42-3.43c-2.19-0.55-4.59,0.2-6.12,1.95
		C47.31,60.39,46.08,61.96,45.56,60.62z"/>
</g>
</svg>
