<?xml version="1.0" encoding="utf-8"?>
<!-- Generator: Adobe Illustrator 25.2.3, SVG Export Plug-In . SVG Version: 6.00 Build 0)  -->
<svg version="1.1" id="Capa_1" xmlns="http://www.w3.org/2000/svg" xmlns:xlink="http://www.w3.org/1999/xlink" x="0px" y="0px"
	 viewBox="0 0 139.82 138.96" style="enable-background:new 0 0 139.82 138.96;" xml:space="preserve">
<style type="text/css">
	.st0{fill:#A4A58D;}
	.st1{fill:#4E3A2F;}
	.st2{fill:none;stroke:#4E3A2F;stroke-width:2;stroke-linecap:round;}
</style>
<g>
	<path class="st0" d="M88.04,110.08H54.81c-10.38,0-18.79-8.87-18.79-19.82V55.2c0-10.95,8.42-19.82,18.79-19.82h33.23
		c10.38,0,18.79,8.88,18.79,19.83v35.05C106.84,101.21,98.42,110.08,88.04,110.08z"/>
	<path class="st1" d="M81.64,86.92c0.58,0.23,1.16-0.29,1.08-0.93c-0.73-5.36-5.6-9.51-11.5-9.51s-10.78,4.14-11.5,9.51
		c-0.09,0.64,0.5,1.16,1.08,0.93l5.56-2.17c3.1-1.21,6.51-1.22,9.61-0.02L81.64,86.92z"/>
	<path class="st1" d="M89.85,61.12c0.36,0.04,0.72,0.09,1.08,0.15c3.12,0.54,3.77,3.71,0.31,4.26c-1.84,0.29-3.77-0.23-5.56-0.58
		c-2.53-0.48-5.02-0.81-7.46,0.17c-0.64,0.25-1.17-0.06-1.26-0.63c-0.12-0.69,0.79-1.25,1.37-1.53
		C81.62,61.35,86.02,60.69,89.85,61.12z"/>
	<path class="st1" d="M62.2,61.12c0.36,0.04,0.72,0.09,1.08,0.15c3.12,0.54,3.77,3.71,0.31,4.26c-1.84,0.29-3.77-0.23-5.56-0.58
		c-2.53-0.48-5.02-0.81-7.46,0.17c-0.64,0.25-1.17-0.06-1.26-0.63c-0.12-0.69,0.79-1.25,1.37-1.53
		C53.96,61.35,58.36,60.69,62.2,61.12z"/>
	<path class="st1" d="M60.79,65.88c0-1.18,0.91-2.14,2.03-2.14c1.12,0,2.03,0.96,2.03,2.14c0,1.18-0.91,2.14-2.03,2.14
		C61.7,68.02,60.79,67.07,60.79,65.88z"/>
	<path class="st1" d="M88.83,65.88c0-1.18,0.91-2.14,2.03-2.14c1.12,0,2.03,0.96,2.03,2.14c0,1.18-0.91,2.14-2.03,2.14
		C89.74,68.02,88.83,67.07,88.83,65.88z"/>
</g>
</svg>
