<?xml version="1.0" encoding="utf-8"?>
<!-- Generator: Adobe Illustrator 25.2.3, SVG Export Plug-In . SVG Version: 6.00 Build 0)  -->
<svg version="1.1" id="Capa_1" xmlns="http://www.w3.org/2000/svg" xmlns:xlink="http://www.w3.org/1999/xlink" x="0px" y="0px"
	 viewBox="0 0 51.6 47.9" style="enable-background:new 0 0 51.6 47.9;" xml:space="preserve">
<style type="text/css">
	.st0{fill:#F0EFEB;stroke:#F0EFEB;stroke-width:0.5;}
</style>
<path class="st0" d="M14.2,38.5c-0.3,0-0.7-0.1-1-0.3c-0.8-0.6-1.2-1.6-1.1-2.8c0.2-5.8,10.2-18.5,12.2-19.9c1-0.7,1.6-0.5,1.9-0.2
	c0.3,0.2,1.1,0.8-0.1,3.9c0,0,0,0,0,0c0,0-2,4.6-4.4,9.1c-4.9,9.6-6.5,9.9-7.2,10.1C14.5,38.5,14.4,38.5,14.2,38.5z M24.7,17.6
	C22,20.5,14.2,30.8,14.1,35.4c0,0.5,0.1,0.9,0.3,1.2c1.7-1,6.5-10,10.1-18.1C24.5,18.2,24.6,17.9,24.7,17.6z"/>
<path class="st0" d="M11.4,34.2c-5.4,0-7.8-2.5-9-4.8c-3.1-6.1,0.4-16.7,3.3-19.6C6.1,9.4,6.5,9.2,6.9,9c0.6-2.8,2.4-5.8,6-6.6
	C14.2,2,15.5,2.3,16.6,3c4.8,3.1,6.7,14.9,6.8,15.4c0.1,0.5-0.3,1-0.8,1.1c-0.5,0.1-1-0.3-1.1-0.8C21,15.5,19,6.8,15.6,4.6
	c-0.7-0.5-1.5-0.6-2.2-0.4c-2.6,0.6-4,2.7-4.5,4.7C9.3,9,9.8,9.2,10.2,9.6c2.2,1.6,4.1,5.8,3,7.7c-0.2,0.3-1,1.3-2.8,0.5
	c-2.1-0.9-3.5-3.3-3.7-6.2c-2.2,3-5.2,11.9-2.6,17c1.5,2.9,4.6,4.2,9.3,3.6c0.5-0.1,1,0.3,1,0.8c0.1,0.5-0.3,1-0.8,1
	C12.9,34.1,12.1,34.2,11.4,34.2z M8.6,10.7c-0.1,2.5,0.9,4.6,2.5,5.3c0.2,0.1,0.4,0.1,0.5,0.1c0.2-0.7-0.7-3.8-2.5-5.1
	C8.9,10.9,8.7,10.8,8.6,10.7z"/>
<path class="st0" d="M27.9,47c-1.3,0-2.5-0.2-3.7-0.6c-2.7-1-6.3-3.5-8.4-10.1c-0.2-0.5,0.1-1,0.6-1.2c0.5-0.2,1,0.1,1.2,0.6
	c1.5,4.7,4,7.8,7.3,8.9c3,1.1,6.1,0.3,8-0.9c3.6-2.2,5.7-6.7,5.8-12c-2.4-0.2-4.6-1.3-6.1-3.2c-2.4-3.1-1.6-5.1-1.1-5.9
	c0.8-1.2,2.4-1.8,4-1.5c1.9,0.4,4.2,2.1,4.8,5.9c0.2,0.9,0.2,1.8,0.3,2.7c0.7-0.1,1.4-0.3,2-0.5c3.2-1.2,6.6-4.5,6.2-9
	c-0.1-0.9-0.4-1.5-1.2-1.9c-4.3-2.5-18.1,2.7-23,4.8c-0.5,0.2-1,0-1.2-0.5c-0.2-0.5,0-1,0.5-1.2c1.9-0.8,18.9-8.1,24.8-4.7
	c1.2,0.7,2,1.8,2.1,3.3c0.5,5.3-3.5,9.4-7.4,10.8c-0.9,0.3-1.8,0.6-2.7,0.7c-0.1,6-2.6,11.1-6.7,13.6C32,46.4,29.9,47,27.9,47z
	 M34.5,22.9c-0.6,0-1.2,0.2-1.5,0.7c-0.5,0.8-0.2,2.2,1,3.8c1.2,1.6,2.9,2.3,4.6,2.5c-0.1-0.8-0.1-1.6-0.3-2.5
	c-0.5-2.8-2-4.1-3.3-4.4C34.9,22.9,34.7,22.9,34.5,22.9z"/>
<path class="st0" d="M26,17.7c-0.2,0-0.5-0.1-0.7-0.3c-0.4-0.4-0.4-0.9,0-1.3C27.9,13.6,34.4,6,33.7,2c-0.1-0.5,0.2-1,0.8-1.1
	s1,0.3,1.1,0.8c1,5.6-7.9,14.7-8.9,15.7C26.5,17.6,26.2,17.7,26,17.7z"/>
<path class="st0" d="M25.3,16.9c0,0-0.1,0-0.2,0c-0.5-0.1-0.9-0.6-0.8-1.1c0-0.1,1.6-9.4-0.1-13.1c-0.2-0.5,0-1,0.5-1.2
	c0.5-0.2,1,0,1.2,0.5c1.9,4.2,0.3,13.8,0.3,14.2C26.2,16.6,25.8,16.9,25.3,16.9z"/>
</svg>
