<?xml version="1.0" encoding="utf-8"?>
<!-- Generator: Adobe Illustrator 25.2.3, SVG Export Plug-In . SVG Version: 6.00 Build 0)  -->
<svg version="1.1" id="Capa_1" xmlns="http://www.w3.org/2000/svg" xmlns:xlink="http://www.w3.org/1999/xlink" x="0px" y="0px"
	 viewBox="0 0 850.4 850.4" style="enable-background:new 0 0 850.4 850.4;" xml:space="preserve">
<style type="text/css">
	.st0{fill:#A5A58D;}
</style>
<path class="st0" d="M288.3,261.9V149.9c0-9.3-7.7-17-17-17H127.5c-9.3,0-17,7.7-17,17v111.9c-53.7,11.3-94.1,33.5-94.1,66.1v500.9
	c0,9.3,7.7,17,17,17h332.4c9.3,0,17-7.7,17-17V327.7C382.4,295.4,342,273.2,288.3,261.9L288.3,261.9z M348.5,738.1H171.1V406.9
	h177.4V738.1z M254.4,166.9v31.7H144.4v-31.7H254.4z M144.4,221.2h109.9v35.2c-17.8-2-36.4-3.2-55-3.2s-37.2,1.2-55,3.2L144.4,221.2
	L144.4,221.2z M50.3,811.6V327.7c0-12.1,50.7-40.8,149.1-40.8s149.1,28.7,149.1,40.8v56.4H159.8c-6.3,0-11.3,5.1-11.3,11.3v354
	c0,6.3,5.1,11.3,11.3,11.3h188.7v50.9L50.3,811.6z"/>
<path class="st0" d="M837,23.7c0-9.3-7.7-17-17-17h-396c-9.3,0-17,7.7-17,17v76.6c0,0.4,0,0.6,0.2,1c0,0.4,0,0.6,0,1L481,691.8
	v136.6c0,9.3,7.7,17,17,17h248.3c9.3,0,17-7.7,17-17V691.8L837,102.2c0-0.4,0-0.6,0-1s0.2-0.6,0.2-1L837,23.7L837,23.7z M515,702.3
	h214.4V735H515V702.3z M730.6,679.7H513.8l-70.9-567.9h358.8L730.6,679.7z M803.1,40.6v48.3H441.2V40.6H803.1z M515,811.6v-53.9
	h214.4v53.9H515z"/>
</svg>
