<?xml version="1.0" encoding="utf-8"?>
<!-- Generator: Adobe Illustrator 25.2.3, SVG Export Plug-In . SVG Version: 6.00 Build 0)  -->
<svg version="1.1" id="Capa_1" xmlns="http://www.w3.org/2000/svg" xmlns:xlink="http://www.w3.org/1999/xlink" x="0px" y="0px"
	 viewBox="0 0 2834.6 2834.6" style="enable-background:new 0 0 2834.6 2834.6;" xml:space="preserve">
<style type="text/css">
	.st0{fill:#A5A58D;}
</style>
<g>
	<path class="st0" d="M317.7,2638.4c0,70.1-57,126.6-126.6,126.6s-127.1-57-127.1-126.6s57-126.6,126.6-126.6
		S317.7,2568.3,317.7,2638.4"/>
	<path class="st0" d="M2030.8,311.9c0,70.1-57,126.6-126.6,126.6S1777,382,1777,311.9s57-126.6,126.6-126.6
		S2030.8,241.8,2030.8,311.9"/>
	<path class="st0" d="M2762.6,160.1c-9.2-13.1-25.1-19.3-41.1-16.9L2607,162.1l-79.8-89.9c-10.6-12.1-27.6-16.9-43.5-12.6
		c-15.5,4.4-27.6,17.4-30,33.8l-18.9,124.2L2329,270.8l0,0c-14,7.3-23.2,21.3-23.2,37.2c0,16,8.2,30.5,21.8,37.7l104.9,57l15,124.7
		c1.9,16.4,13.1,30,29,35.3c15.5,5.3,32.9,1,44-11.1l82.7-87l113.6,22.7l0,0c15.5,3.4,31.9-2.9,41.6-15.5s11.6-30,4.8-44
		l-53.7-113.1l57-111.2l0,0C2773.3,189.6,2771.8,172.7,2762.6,160.1L2762.6,160.1z"/>
	<path class="st0" d="M86.2,273.7l63.3,33.8l9.2,73.5c1.9,16,13.1,30,28.5,34.8c15.5,5.3,32.4,1,44-10.6l49.3-50.8l68.6,13.1
		c16,2.9,31.9-2.9,41.6-16c9.7-12.6,11.6-30,4.4-44.5l-32.4-66.7l34.3-65.3l0,0c7.7-14,6.3-31.4-2.9-44.5
		c-9.2-13.1-25.1-19.8-41.1-16.9l-69.1,11.1l-48.3-52.7c-10.6-12.1-27.6-16.4-43-12.1c-15.5,4.4-27.1,17.4-30,33.4l-11.6,74
		l-62.8,30.9l0,0c-14,6.8-23.2,21.3-23.7,37.2s8.2,30.5,22.2,38.2H86.2z"/>
	<path class="st0" d="M2593.9,2160.8c-9.2-13.1-25.1-19.8-41.1-16.9l-69.1,11.1l-48.3-52.7c-10.6-12.1-27.6-16.4-43-12.1
		s-27.1,17.4-30,33.4l-11.6,73l-63.3,31.4c-14,6.8-23.2,21.3-23.7,37.2c-0.5,16,8.2,30.5,22.2,38.2l63.3,33.8l9.2,73.5
		c1.9,16,13.1,30,28.5,34.8c15.5,5.3,32.4,1,44-10.6l49.8-51.2l68.6,13.5l0,0c16,2.9,31.9-2.9,41.6-16c9.7-12.6,11.6-30,4.4-44.5
		l-32.4-66.2l34.3-65.3l0,0C2605,2190.3,2603.1,2173.9,2593.9,2160.8L2593.9,2160.8z"/>
	<path class="st0" d="M932.6,2448.9c77.8-8.7,161.4-37.2,250.4-67.7c174.5-59.9,355.3-121.8,483.4-21.3
		c79.3,62.4,92.8,158.5,107.8,260.1l3.4,23.7c3.4,20.8,21.3,36.3,42.1,35.8h6.3c11.1-1.4,21.3-7.7,28-16.4
		c6.8-9.2,9.7-20.8,7.7-31.9l-3.4-23.7c-16.4-113.6-33.4-231.5-139.2-314.7c-164.3-129.1-376.1-56.6-563.1,7.7
		c-84.6,29-163.4,56.1-232.5,63.3c-63.3,6.8-111.7-4.8-141.1-34.8c-49.3-50.3-39.2-139.7-39.2-139.7l0,0
		c14.5-95.7-20.8-191.9-94.3-255.2l-2.4-1.9l0,0c-6.8-4.4-12.6-9.7-17.9-15.5c4.4-6.8,10.6-12.1,17.4-15.5
		c43.5-24.2,42.5-77.8,22.2-117l0,0c-5.8-10.6-16-18.4-28-21.3c-25.6-6.3-42.5-16-46.4-26.1c-5.3-16,12.6-47.4,27.6-65.3
		c51.7-45.9,84.6-124.2,42.5-181.3c-25.1-34.8-67.7-47.9-101.5-58l-18.9-5.8l0,0c-21.8-5.3-36.7-25.1-36.7-47.4
		c-1.9-19.8,6.8-30.9,31.4-57.5l9.7-10.6c42.5-46.9,84.6-93.3,126.6-140.2l70.6-77.3c44.5-48.3,72-109.7,78.8-175
		c8.7-78.3-7.3-156.6-21.3-225.7c-14.5-73-26.1-139.2-17.4-205.9c14.5-87.5,38.7-173,72.5-255.2l12.1-33.4l0,0
		c8.2-21.8-3.4-46.4-25.1-54.1c-21.8-7.7-46.4,3.4-54.1,25.1l-12.1,32.9c-36.3,88.5-62.4,180.8-77.8,275
		c-6.3,77.8,0,156.6,18.9,232.5c13.1,66.2,27.1,134.9,19.8,200.1l0,0c-1.5,10.6-2.9,21.3-5.8,31.4c-8.7-3.9-16-10.2-21.3-18.4
		c-12.6-19.8-38.7-25.6-58.5-13.5c-19.8,12.6-25.6,38.7-13.5,58.5c14,22.2,34.3,39.6,58,49.8c-4.8,6.8-10.2,13.1-15.5,19.3
		l-70.6,76.9c-42.5,45.9-84.6,92.8-126.6,139.7l-8.7,9.7c-25.6,28.5-58,63.3-53.2,121.8l0,0c1.5,27.1,11.1,53.2,28,74.4
		c16.9,21.3,39.6,37.2,65.7,45l21.3,6.8c21.3,4.4,41.1,13.5,57.5,27.1c10.2,13.5-9.7,50.3-31.9,69.6l-3.9,3.4
		c-7.3,7.7-69.1,78.8-47.4,147.9l0,0c12.6,36.3,41.6,64.3,78.3,75.4c-26.6,16.9-44,44.5-47.9,75.9c-1.5,23.2,6.8,57,52.2,89.4l0,0
		c49.8,44,73.5,110.2,63.3,175.9c0,5.3-16.4,131,61.9,211.7C770.2,2438.8,840.7,2458.6,932.6,2448.9L932.6,2448.9z"/>
	<path class="st0" d="M2000.8,2384.1c12.1,0,23.2-5.3,31.4-14c97.2-106.8,327.7-389.6,371.2-700.4
		c60.4-427.8-230.6-660.3-511.4-884.1c-214.1-170.6-435.5-347.5-496.4-610.5c-5.3-22.7-28-36.7-50.8-31.9
		c-22.7,4.8-36.7,28-31.9,50.8c67.7,292.4,301.1,478.1,526.4,657.9c275,219,534.1,425.4,480.5,806.3c-28,199.1-159,444.2-350,655.5
		c-11.1,12.6-13.5,30-6.8,45.4C1969.4,2374.5,1984.4,2384.1,2000.8,2384.1L2000.8,2384.1z"/>
	<path class="st0" d="M1870.8,2059.3c18.9,13.5,45.4,9.2,59-9.7c77.8-107.3,124.2-243.6,121.8-356.7
		c-5.8-292.4-194.3-466.9-376.5-634.2c-84.6-73.5-162.4-154.2-232.5-241.7c-47.9-59.9-86-127.6-112.6-199.6
		c-3.4-11.1-10.6-20.3-20.8-25.6c-10.2-5.3-22.2-6.3-32.9-2.4c-11.1,3.9-19.8,11.6-24.7,21.8c-4.8,10.2-5.3,22.2-1.5,32.9
		c29.5,80.2,72,155.6,125.2,222.4c73,91.8,154.2,176.9,242.2,253.8c177.4,163.4,344.6,318.1,350,574.7
		c1.9,93.8-39.6,214.1-105.9,305.5C1847.6,2019.2,1851.9,2045.3,1870.8,2059.3L1870.8,2059.3z"/>
	<path class="st0" d="M1269.5,1030.7c0,23.2-18.9,42.5-42.5,42.5c-23.7,0-42.5-18.9-42.5-42.5c0-23.7,18.9-42.5,42.5-42.5
		C1250.6,988.2,1269.5,1007.5,1269.5,1030.7"/>
	<path class="st0" d="M1480.7,1390.3c0,23.2-18.9,42.5-42.5,42.5c-23.7,0-42.5-18.9-42.5-42.5c0-23.7,18.9-42.5,42.5-42.5
		C1461.9,1347.8,1480.7,1367.1,1480.7,1390.3"/>
	<path class="st0" d="M1163.6,1242.4c0,23.2-18.9,42.5-42.5,42.5c-23.7,0-42.5-18.9-42.5-42.5s18.9-42.5,42.5-42.5
		C1144.8,1199.9,1163.6,1219.2,1163.6,1242.4"/>
	<path class="st0" d="M1253.5,1855.8c23.2,2.9,39.6,24.2,36.3,47.4c-2.9,23.2-24.2,39.6-47.4,36.3c-23.2-2.9-39.6-24.2-36.3-47.4
		C1209.1,1869.3,1230.3,1852.9,1253.5,1855.8"/>
	<path class="st0" d="M1507.3,1644.6c23.2,2.9,39.6,24.2,36.3,47.4c-2.9,23.2-24.2,39.6-47.4,36.3c-23.2-2.9-39.6-24.2-36.3-47.4
		C1462.8,1657.6,1484.1,1641.2,1507.3,1644.6"/>
	<path class="st0" d="M1304.3,1459.9c-9.2-13.5-25.1-20.3-41.1-17.9l-70.6,10.2l-48.8-49.3l0,0c-11.1-11.6-27.6-15.5-43-10.6
		c-15,4.8-26.6,17.9-29,33.4l-11.1,65.3l-63.3,28.5l0,0c-15,6.8-24.7,21.3-25.1,37.7c-0.5,16.4,9.2,31.4,23.7,38.7l62.4,30.5
		l8.7,65.7c1.9,16,13.1,29,28,34.3c15,5.3,31.4,1.9,43-9.2l50.3-47.9l70.1,12.6c16,2.9,31.9-3.9,41.6-16.9s10.6-30.5,3.4-44.5
		l-30.9-58.5l32.9-57.5l0,0C1313.9,1490.9,1313.5,1473.5,1304.3,1459.9L1304.3,1459.9z"/>
</g>
</svg>
